HIERARCHY
ROOT Hips
{
	OFFSET 0.00000 0.00000 0.00000
	CHANNELS 6 Xposition Yposition Zposition Yrotation Zrotation Xrotation 
	JOINT Lumbar
	{
		OFFSET 0 0 0
		CHANNELS 3 Zrotation Xrotation Yrotation
		JOINT Neck
		{
			OFFSET 0.00 0.2701 0.00
			CHANNELS 3 Zrotation Xrotation Yrotation
			End Site
			{
				OFFSET 0.00 0.1379 0.00
			}
		}
		JOINT RightShoulder
		{
			OFFSET 0.0119 0.2289 0.1181
			CHANNELS 3 Zrotation Xrotation Yrotation
			JOINT RightElbow
			{
				OFFSET 0.00 -0.1475 0.00
				CHANNELS 2 Zrotation Yrotation
				JOINT RightWrist
				{
					OFFSET 0.00 -0.1605 0.00
					CHANNELS 2 Zrotation Xrotation
					End Site
					{
						OFFSET 0.0040 -0.1068 0.0006
					}
				}
			}
		}
		JOINT LeftShoulder
		{
			OFFSET 0.0119 0.2289 -0.1181
			CHANNELS 3 Zrotation Xrotation Yrotation
			JOINT LeftElbow
			{
				OFFSET 0.00 -0.1475 0.00
				CHANNELS 2 Zrotation Yrotation
				JOINT LeftWrist
				{
					OFFSET 0.00 -0.1605 0.00
					CHANNELS 2 Zrotation Xrotation
					End Site
					{
						OFFSET 0.0040 -0.1068 -0.0006
					}
				}
			}
		}
	}
	JOINT RightHip
	{
		OFFSET 0.0316 -0.0424 0.0458
		CHANNELS 3 Zrotation Xrotation Yrotation
		JOINT RightKnee
		{
			OFFSET 0.00 -0.2438 0.00
			CHANNELS 1 Zrotation
			JOINT RightAnkle
			{
				OFFSET 0.00 -0.2449 0.00
				CHANNELS 3 Zrotation Xrotation Yrotation
				End Site
				{
					OFFSET 0.1237 -0.0542 0.0051
				}
			}
		}
	}
	JOINT LeftHip
	{
		OFFSET 0.0316 -0.0424 -0.0458
		CHANNELS 3 Zrotation Xrotation Yrotation
		JOINT LeftKnee
		{
			OFFSET 0.00 -0.2438 0.00
			CHANNELS 1 Zrotation
			JOINT LeftAnkle
			{
				OFFSET 0.00 -0.2449 0.00
				CHANNELS 3 Zrotation Xrotation Yrotation
				End Site
				{
					OFFSET 0.1237 -0.0542 -0.0051
				}
			}
		}
	}
}
MOTION
Frames: 28
Frame Time: 0.02
1.14121 0.00666 0.81673 1108.93423 -34.08167 -6.17683 42.26653 7.07822 5.87295 -1.97191 -2.64089 -2.11994 -10.2636 -15.8434 -33.5702 19.70595 65.94934 -8.66727 5.00928 -44.0437 9.83542 -5.67912 76.39169 -108.94387 8.73157 -5.39736 28.1141 13.65494 -46.38857 -4.74723 8.17302 32.67368 12.8049 41.85361 20.24976 -5.86442 -58.42572 -8.59163 2.17097 3.38513
1.14765 0.00679 0.81375 1109.55343 -33.94809 -5.78662 41.98853 6.9843 6.4519 -2.24934 -2.83778 -2.11994 -10.15604 -16.88456 -29.92969 20.29034 68.49888 -7.73891 4.28556 -43.8116 10.3465 -6.22629 76.57419 -105.419 7.7543 -4.57508 26.82519 13.72173 -46.21131 -3.97645 8.34099 33.43549 13.15257 44.08226 19.36886 -5.05129 -57.44517 -8.39824 2.4187 3.49712
1.154 0.00669 0.81057 1110.15945 -33.85046 -5.42769 41.77555 6.90075 7.01412 -2.5839 -3.05324 -2.11994 -10.17204 -17.95146 -26.09239 20.85656 71.72222 -6.54583 3.37478 -43.47603 11.22504 -7.15797 76.78336 -99.88523 6.37202 -3.26403 25.86665 13.68321 -45.18887 -3.78396 8.32949 32.98057 12.94534 45.99293 18.40932 -4.07269 -55.29302 -8.26972 2.62903 3.59457
1.16041 0.00666 0.80745 1110.7745 -33.73972 -5.06326 41.53959 6.81416 7.56821 -2.89452 -3.25877 -2.11994 -10.13793 -18.98012 -22.41093 21.42963 74.56064 -5.49862 2.5739 -43.20851 11.89135 -7.86329 76.98216 -95.55159 5.23632 -2.25148 24.76281 13.69382 -44.61146 -3.3433 8.41028 33.11057 13.00475 48.03633 17.4994 -3.16733 -53.64257 -8.12068 2.8366 3.68951
1.16672 0.00675 0.80446 1111.38074 -33.61513 -4.65773 41.27591 6.71833 8.18591 -3.20226 -3.47295 -2.11994 -10.08799 -20.13306 -18.36482 22.02233 77.79307 -4.31902 1.6559 -42.85815 12.73637 -8.77213 77.17595 -90.07387 3.84951 -0.9351 23.64075 13.69636 -43.79463 -2.83998 8.43407 33.13397 13.01569 50.11516 16.5246 -2.211 -52.05909 -7.94608 3.07244 3.79708
1.17322 0.00656 0.80115 1111.9994 -33.52921 -4.34685 41.08632 6.64466 8.66857 -3.52583 -3.6731 -2.11994 -10.09697 -21.02467 -15.07389 22.56582 80.32132 -3.36726 0.94585 -42.65202 13.30449 -9.35808 77.38461 -86.44594 2.87841 -0.11931 22.63519 13.69156 -43.26505 -2.60462 8.5376 33.07854 12.99052 52.05128 15.66966 -1.34617 -50.09039 -7.83547 3.26095 3.88449
1.18023 0.00571 0.79708 1112.6705 -33.5262 -4.29004 41.07406 6.63438 8.77872 -3.8982 -3.82378 -2.11994 -10.23629 -21.23875 -13.78268 22.96243 81.00509 -3.03528 0.80496 -42.88763 12.97626 -8.90612 77.6406 -88.79469 3.233 -0.91925 21.85828 13.69446 -43.78327 -2.97008 8.91482 33.11471 13.00672 53.65397 15.15383 -0.74881 -47.24076 -7.88527 3.33706 3.92408
1.18744 0.0046 0.79268 1113.35116 -33.56332 -4.32789 41.13603 6.64546 8.75513 -4.28029 -3.96038 -2.11994 -10.43081 -21.18041 -13.28592 23.31089 80.91644 -2.95404 0.88761 -43.26789 12.36545 -8.12659 77.90858 -93.0045 4.00577 -2.21905 21.18845 13.69362 -44.60903 -3.58437 9.37785 33.10736 13.00294 55.12683 14.76477 -0.26017 -44.07087 -7.99584 3.37302 3.94681
1.19457 0.00359 0.78839 1114.01756 -33.592 -4.32284 41.17139 6.64413 8.79484 -4.64503 -4.1071 -2.11994 -10.59845 -21.2101 -12.53333 23.68933 80.98375 -2.81441 0.90588 -43.56955 11.91296 -7.53329 78.16184 -96.10312 4.53299 -3.21207 20.47791 13.69348 -45.26058 -4.08409 9.79797 33.10863 13.00317 56.67508 14.3249 0.25065 -41.12334 -8.07671 3.42946 3.97821
1.20167 0.00265 0.78426 1114.72634 -33.58132 -4.31852 41.17923 6.65481 8.821 -5.06696 -4.23895 -2.11994 -10.77317 -21.38369 -11.35998 24.03312 81.83927 -2.44753 0.77181 -43.92235 11.34788 -6.79749 78.45305 -100.23059 5.27502 -4.51756 19.74782 13.69383 -46.02784 -4.6127 10.23081 33.11559 13.00593 58.15202 13.85093 0.87494 -37.80963 -8.16763 3.47442 4.00443
1.20888 0.00151 0.77972 1115.34812 -33.66079 -4.33446 41.26082 6.64506 8.8467 -5.3707 -4.398 -2.11994 -10.95087 -21.20274 -11.21486 24.43797 80.93543 -2.59588 0.99629 -44.20386 10.94424 -6.27323 78.67037 -102.71101 5.68108 -5.3057 19.07652 13.69362 -46.63868 -5.12962 10.65652 33.11541 13.00554 59.73929 13.48234 1.24511 -35.19807 -8.25268 3.53413 4.03765
1.21637 -0.00013 0.77417 1115.73859 -33.98672 -4.38564 41.53085 6.57686 8.87823 -5.35073 -4.63697 -2.11994 -11.06817 -20.019 -14.06819 25.02121 74.7031 -4.29316 2.28284 -44.25766 11.06369 -6.43263 78.65755 -99.96017 5.0003 -4.47349 18.56604 13.69371 -46.74034 -5.57758 11.07033 33.11634 13.00596 61.76396 13.34533 0.84574 -34.61317 -8.2922 3.64953 4.09599
1.22397 -0.00197 0.7682 1116.0402 -34.40027 -4.45307 41.87182 6.48663 8.91792 -5.21056 -4.90344 -2.11994 -11.19578 -18.50331 -17.87036 25.66784 66.83732 -6.46927 3.90173 -44.23463 11.35147 -6.81022 78.57388 -95.54269 3.98008 -3.11946 18.10487 13.69368 -46.67836 -5.99806 11.46842 33.11536 13.00562 63.88696 13.31463 0.20957 -34.75117 -8.32559 3.78047 4.16173
1.23154 -0.00373 0.76239 1116.37382 -34.76896 -4.51166 42.17783 6.40451 8.97185 -5.12138 -5.1563 -2.11994 -11.35471 -17.20035 -20.99957 26.28698 60.15975 -8.30129 5.28391 -44.24396 11.55564 -7.07392 78.53802 -92.04443 3.15389 -2.05147 17.6031 13.69371 -46.69713 -6.41193 11.85721 33.11509 13.00555 65.90034 13.25566 -0.25546 -34.55692 -8.37145 3.90143 4.22326
1.23903 -0.00546 0.75674 1116.73873 -35.16113 -4.58081 42.49729 6.33162 8.94887 -5.04659 -5.41337 -2.11994 -11.3654 -15.63186 -25.15129 26.89943 51.61061 -10.6653 7.02761 -44.26797 11.78238 -7.39061 78.43774 -87.91612 2.17214 -0.79137 17.18157 13.69371 -46.70001 -6.91424 12.32296 33.11465 13.00542 68.18304 13.12088 -0.98646 -34.36266 -8.38043 4.0337 4.2881
1.2467 -0.00729 0.75063 1117.02276 -35.52372 -4.62919 42.80546 6.23341 9.08531 -4.91485 -5.6684 -2.11994 -11.68434 -14.53463 -27.4205 27.54079 46.53488 -12.045 8.10424 -44.24267 12.003 -7.65049 78.45335 -84.69362 1.43091 0.19543 16.60383 13.69353 -46.69212 -7.22407 12.61775 33.11301 13.00472 69.92996 13.16205 -1.2257 -34.34918 -8.46169 4.14612 4.34762
1.25488 -0.00945 0.74343 1117.058 -35.79076 -4.62805 43.05695 6.0759 9.69895 -4.6402 -5.91075 -2.11994 -12.86998 -14.8766 -23.9815 28.25206 51.87473 -10.46871 7.17315 -44.08869 12.19355 -7.72481 78.81877 -84.24955 1.41232 0.33488 15.5799 13.69405 -46.69865 -7.00088 12.49305 33.11691 13.00647 70.17131 13.71028 0.01474 -34.61884 -8.76278 4.20458 4.39411
1.26323 -0.01169 0.73575 1117.02386 -36.02314 -4.60295 43.29549 5.89272 10.46618 -4.3151 -6.15004 -2.11994 -14.36124 -15.69449 -18.66508 28.98893 60.70319 -7.90278 5.575 -43.88993 12.37093 -7.73325 79.30182 -84.78192 1.64886 0.17955 14.39983 13.69326 -46.69428 -6.59028 12.1867 33.11214 13.00418 69.86978 14.4225 1.74693 -35.05303 -9.13283 4.24191 4.43445
1.2715 -0.01385 0.72822 1117.05218 -36.26652 -4.5804 43.54528 5.71764 11.1382 -4.02296 -6.39127 -2.11994 -15.7012 -16.25948 -14.38386 29.71126 67.64446 -5.87286 4.3351 -43.71732 12.53402 -7.75495 79.72156 -84.95378 1.78415 0.13572 13.28887 13.69354 -46.69514 -6.26307 11.93194 33.11422 13.0051 69.82059 15.02804 3.21256 -35.44132 -9.45889 4.28599 4.47538
1.27981 -0.01621 0.72095 1116.94613 -36.53405 -4.593 43.77609 5.55637 11.9176 -3.68443 -6.63192 -2.11994 -17.09634 -16.96975 -9.35982 30.45005 75.75254 -3.51147 2.86985 -43.51429 12.77757 -7.84699 80.17652 -84.74971 1.85066 0.19496 12.17586 13.69567 -46.7036 -5.92155 11.80999 33.12985 13.0122 69.75661 15.77303 4.85142 -35.73902 -9.83883 4.34239 4.52574
1.28805 -0.01816 0.71304 1117.10549 -36.74065 -4.52732 44.04096 5.36115 12.50985 -3.43192 -6.87173 -2.11994 -18.44598 -17.49172 -5.4348 31.1573 82.34252 -1.57931 1.71679 -43.36914 12.86183 -7.78345 80.59189 -85.54127 2.1193 -0.02514 11.04396 13.68878 -46.67781 -5.59204 11.36526 33.0827 12.99042 69.5862 16.26521 6.24975 -36.2472 -10.12219 4.36821 4.55503
1.29611 -0.01898 0.7035 1118.00807 -36.79718 -4.2442 44.4142 5.07356 12.54614 -3.43141 -7.11793 -2.11994 -19.62014 -17.40929 -4.90124 31.79118 83.33768 -1.24796 1.53519 -43.35956 12.39348 -7.22221 80.82453 -89.2061 2.94118 -1.05195 9.77445 13.6999 -46.71823 -5.11479 10.10403 33.15299 13.02359 69.31493 16.01785 6.86049 -37.36165 -10.12883 4.31207 4.52661
1.30407 -0.01936 0.69334 1119.18189 -36.79109 -3.88471 44.81905 4.75401 12.38878 -3.51929 -7.36174 -2.11994 -20.73284 -17.11932 -5.54538 32.3875 82.77861 -1.35193 1.6962 -43.41688 11.78659 -6.51909 81.01992 -93.78501 3.95149 -2.33354 8.51518 13.69466 -46.69894 -4.69808 8.52105 33.11377 13.00624 68.94375 15.51043 7.21343 -38.66662 -10.03475 4.22624 4.47732
1.31204 -0.01989 0.68347 1120.23623 -36.80713 -3.56433 45.20259 4.45204 12.32146 -3.56611 -7.60131 -2.11994 -21.85776 -16.90167 -5.72222 32.98871 83.32111 -1.13533 1.7377 -43.46681 11.31773 -5.93795 81.26457 -97.70883 4.83583 -3.42893 7.33072 13.66814 -46.6001 -4.40304 7.06245 32.92623 12.92008 68.5781 15.12195 7.68833 -39.8377 -9.98214 4.15574 4.43826
1.3202 -0.02063 0.67354 1121.27183 -36.84965 -3.22314 45.61777 4.13502 12.25206 -3.61544 -7.86337 -2.11994 -23.06133 -16.78228 -5.57793 33.64586 82.38508 -1.38621 1.61546 -43.41729 10.5296 -5.12112 81.38511 -102.65548 5.88732 -4.82618 5.80109 13.76017 -46.93832 -3.47353 5.67974 33.54496 13.20741 68.36112 14.73468 8.1622 -41.21401 -9.9496 4.07697 4.39595
1.32791 -0.02083 0.66361 1122.41214 -36.82146 -2.90924 45.9713 3.84367 12.13754 -3.68048 -8.07796 -2.11994 -24.08043 -16.4166 -6.36826 34.17272 84.02718 -0.8003 1.90908 -43.59226 10.37623 -4.75076 81.74333 -105.704 6.64696 -5.65819 5.00024 13.60474 -46.36834 -3.87995 4.07743 32.49574 12.72217 67.81881 14.28273 8.56784 -42.20676 -9.85106 4.00837 4.35542
1.33454 -0.01959 0.65373 1123.77372 -36.62339 -2.67463 46.17648 3.61768 11.95683 -3.77405 -8.16244 -2.11994 -24.6201 -15.29888 -9.79371 34.38719 93.90679 2.37615 3.40209 -44.36423 11.98728 -5.74753 82.8573 -103.04328 6.42279 -4.80768 6.16477 12.74124 -43.16624 -7.97725 1.84029 26.54487 9.96639 66.39694 13.70081 8.87099 -42.08351 -9.58922 3.97752 4.32579
1.3407 -0.01783 0.64388 1125.23252 -36.35493 -2.4732 46.31335 3.42127 11.73406 -3.87949 -8.19887 -2.11994 -24.97118 -13.95942 -14.06879 34.46455 106.28271 6.37211 5.281 -45.36145 14.24521 -7.18032 84.19505 -98.47965 5.91912 -3.38901 8.07137 11.63464 -39.07835 -13.41028 -0.58635 18.97835 6.46227 64.65542 13.06538 9.10859 -41.56849 -9.26512 3.95739 4.29845
